<svg xmlns="http://www.w3.org/2000/svg" viewBox="5741.34326171875 4812.70458984375 25.3125 30.6171875"><path fill="white" stroke="none" fill-opacity="1" stroke-width="1" stroke-opacity="1" cursor="default" font-size-adjust="none" pointer-events="none" id="tSvg182741adae0" title="Path 5" d="M 5745.112087954233 4813.781069840158 C 5743.830837954233 4814.093569840158 5742.749587954233 4815.193567340158 5742.430837954233 4816.499817340158 C 5742.355837954233 4816.781067340158 5742.343337954233 4818.843567340158 5742.343337954233 4828.062317340158 C 5742.343337954233 4831.801892340158 5742.343337954233 4835.541467340158 5742.343337954233 4839.281042340158 C 5742.399587954233 4839.447709006825 5742.455837954233 4839.614375673491 5742.512087954233 4839.781042340158 C 5742.930837954233 4841.006042340158 5743.930837954233 4841.931042340158 5745.130837954233 4842.218542340158 C 5745.730837954233 4842.356042340158 5762.268337954233 4842.356042340158 5762.868337954233 4842.218542340158 C 5764.068337954233 4841.931042340158 5765.068337954233 4841.006042340158 5765.487087954233 4839.781042340158 C 5765.543337954233 4839.614375673491 5765.599587954233 4839.447709006825 5765.655837954233 4839.281042340158 C 5765.655837954233 4836.301884006824 5765.655837954233 4833.322725673491 5765.655837954233 4830.343567340158 C 5765.655837954233 4827.364400673491 5765.655837954233 4824.385234006824 5765.655837954233 4821.406067340158 C 5765.605837954233 4821.281067340158 5765.555837954233 4821.156067340158 5765.505837954233 4821.031067340158 C 5765.368337954233 4820.681067340158 5765.149587954233 4820.443567340158 5762.080837954233 4817.3623173401575 C 5759.399587954233 4814.681067340158 5758.730837954233 4814.043567340158 5758.443337954233 4813.8935673401575 C 5758.326671287567 4813.835234840158 5758.2100046209 4813.776902340158 5758.093337954233 4813.718569840158 C 5755.989171287566 4813.714402340158 5753.8850046209 4813.710234840158 5751.780837954233 4813.7060673401575C 5746.568337954233 4813.699817340158 5745.405837954233 4813.712319840158 5745.112087954233 4813.781069840158Z  M 5756.999587954233 4817.993567340158 C 5756.999587954233 4820.062317340158 5757.012087954233 4820.337317340158 5757.112087954233 4820.6748173401575 C 5757.324587954233 4821.343567340158 5757.768337954233 4821.843567340158 5758.418337954233 4822.1435673401575 C 5758.705837954233 4822.274817340158 5758.799587954233 4822.281067340158 5761.187087954233 4822.312317340158 C 5762.0100046209 4822.322734006824 5762.832921287566 4822.333150673491 5763.655837954233 4822.343567340158 C 5763.655837954233 4825.126900673491 5763.655837954233 4827.910234006825 5763.655837954233 4830.693567340158 C 5763.655837954233 4833.474809006824 5763.655837954233 4836.256050673492 5763.655837954233 4839.037292340158 C 5763.593337954233 4839.1602090068245 5763.530837954233 4839.283125673492 5763.468337954233 4839.406042340158 C 5763.255837954233 4839.818542340158 5762.880837954233 4840.143542340158 5762.499587954233 4840.249792340158 C 5762.337087954233 4840.293542340158 5759.537087954233 4840.306042340158 5753.862087954233 4840.299792340158 C 5751.064171287567 4840.293542340158 5748.266254620899 4840.287292340158 5745.468337954233 4840.281042340158 C 5745.368337954233 4840.2227090068245 5745.268337954233 4840.164375673491 5745.168337954233 4840.106042340158 C 5745.005837954233 4840.006042340158 5744.787087954233 4839.812292340158 5744.680837954233 4839.668542340158 C 5744.287087954233 4839.124792340158 5744.312087954233 4839.843542340158 5744.324587954233 4827.868567340158 C 5744.330837954233 4824.233150673491 5744.337087954233 4820.597734006825 5744.343337954233 4816.962317340158 C 5744.405837954233 4816.839400673492 5744.468337954233 4816.716484006824 5744.530837954233 4816.593567340158 C 5744.737087954233 4816.193567340158 5745.043337954233 4815.912317340158 5745.412087954233 4815.781067340158 C 5745.612087954233 4815.7060673401575 5746.668337954233 4815.693567340158 5751.330837954233 4815.687317340158 C 5753.220421287567 4815.687317340158 5755.110004620899 4815.687317340158 5756.999587954233 4815.687317340158C 5756.999587954233 4816.4560673401575 5756.999587954233 4817.224817340158 5756.999587954233 4817.993567340158Z  M 5760.624587954233 4818.718567340158 C 5761.155837954233 4819.249817340158 5761.687087954233 4819.781067340158 5762.218337954233 4820.312317340158 C 5761.714171287566 4820.312317340158 5761.2100046209 4820.312317340158 5760.705837954233 4820.312317340158 C 5759.418337954233 4820.312317340158 5759.180837954233 4820.2998173401575 5759.099587954233 4820.212317340158 C 5759.012087954233 4820.131067340158 5758.999587954233 4819.8935673401575 5758.999587954233 4818.618567340158 C 5758.999587954233 4817.7998173401575 5759.005837954233 4817.124817340158 5759.018337954233 4817.124817340158C 5759.024587954233 4817.124817340158 5759.749587954233 4817.843567340158 5760.624587954233 4818.718567340158Z"/><path fill="white" stroke="none" fill-opacity="1" stroke-width="1" stroke-opacity="1" cursor="default" font-size-adjust="none" id="tSvgf22414be60" title="Path 6" d="M 5748.312087954233 4825.068542340158 C 5748.224587954233 4825.106042340158 5748.087087954233 4825.193542340158 5748.012087954233 4825.268542340158 C 5747.524587954233 4825.718542340158 5747.587087954233 4826.424792340158 5748.143337954233 4826.837292340158 C 5748.318337954233 4826.968542340158 5748.337087954233 4826.968542340158 5753.999587954233 4826.968542340158 C 5759.662087954233 4826.968542340158 5759.680837954233 4826.968542340158 5759.855837954233 4826.837292340158 C 5760.468337954233 4826.381042340158 5760.468337954233 4825.618542340158 5759.855837954233 4825.162292340158 C 5759.680837954233 4825.031042340158 5759.655837954233 4825.031042340158 5754.074587954233 4825.018542340158C 5750.437087954233 4825.012292340158 5748.412087954233 4825.031042340158 5748.312087954233 4825.068542340158Z"/><path fill="white" stroke="none" fill-opacity="1" stroke-width="1" stroke-opacity="1" cursor="default" font-size-adjust="none" id="tSvg1a7ddfc828" title="Path 7" d="M 5748.199587954233 4829.793542340158 C 5747.893337954233 4829.943542340158 5747.730837954233 4830.218542340158 5747.699587954233 4830.618542340158 C 5747.668337954233 4831.056042340158 5747.837087954233 4831.337292340158 5748.249587954233 4831.543542340158 C 5748.341254620899 4831.591459006824 5748.432921287566 4831.6393756734915 5748.524587954233 4831.687292340158 C 5750.349587954233 4831.687292340158 5752.174587954233 4831.687292340158 5753.999587954233 4831.687292340158 C 5755.824587954233 4831.687292340158 5757.649587954233 4831.687292340158 5759.474587954233 4831.687292340158 C 5759.5662546209 4831.6393756734915 5759.657921287567 4831.591459006824 5759.749587954233 4831.543542340158 C 5760.162087954233 4831.337292340158 5760.330837954233 4831.056042340158 5760.299587954233 4830.618542340158 C 5760.268337954233 4830.212292340158 5760.099587954233 4829.937292340158 5759.787087954233 4829.787292340158 C 5759.593337954233 4829.699792340158 5759.012087954233 4829.687292340158 5753.987087954233 4829.687292340158C 5748.974587954233 4829.687292340158 5748.387087954233 4829.699792340158 5748.199587954233 4829.793542340158Z"/><path fill="white" stroke="none" fill-opacity="1" stroke-width="1" stroke-opacity="1" cursor="default" font-size-adjust="none" id="tSvga583c98759" title="Path 8" d="M 5748.249587954233 4834.449792340158 C 5747.837087954233 4834.662292340158 5747.668337954233 4834.943542340158 5747.699587954233 4835.381042340158 C 5747.730837954233 4835.787292340158 5747.899587954233 4836.062292340158 5748.212087954233 4836.212292340158 C 5748.399587954233 4836.299792340158 5748.805837954233 4836.312292340158 5751.687087954233 4836.312292340158 C 5754.437087954233 4836.312292340158 5754.968337954233 4836.299792340158 5755.124587954233 4836.218542340158 C 5755.512087954233 4836.018542340158 5755.743337954233 4835.499792340158 5755.630837954233 4835.074792340158 C 5755.549587954233 4834.787292340158 5755.224587954233 4834.456042340158 5754.930837954233 4834.374792340158 C 5754.805837954233 4834.337292340158 5753.462087954233 4834.312292340158 5751.624587954233 4834.312292340158C 5748.537087954233 4834.312292340158 5748.524587954233 4834.312292340158 5748.249587954233 4834.449792340158Z"/><defs/></svg>